<?xml version="1.0" encoding="UTF-8" standalone="no"?>
<svg
   width="132.004"
   height="132"
   version="1.1"
   id="svg9"
   sodipodi:docname="instagram1.svg"
   inkscape:version="1.4 (e7c3feb100, 2024-10-09)"
   xmlns:inkscape="http://www.inkscape.org/namespaces/inkscape"
   xmlns:sodipodi="http://sodipodi.sourceforge.net/DTD/sodipodi-0.dtd"
   xmlns:xlink="http://www.w3.org/1999/xlink"
   xmlns="http://www.w3.org/2000/svg"
   xmlns:svg="http://www.w3.org/2000/svg">
  <sodipodi:namedview
     id="namedview9"
     pagecolor="#ffffff"
     bordercolor="#000000"
     borderopacity="0.25"
     inkscape:showpageshadow="2"
     inkscape:pageopacity="0.0"
     inkscape:pagecheckerboard="0"
     inkscape:deskcolor="#d1d1d1"
     inkscape:zoom="3.2916667"
     inkscape:cx="-16.708861"
     inkscape:cy="89.772152"
     inkscape:window-width="1920"
     inkscape:window-height="1080"
     inkscape:window-x="0"
     inkscape:window-y="0"
     inkscape:window-maximized="1"
     inkscape:current-layer="svg9" />
  <defs
     id="defs7">
    <linearGradient
       id="b">
      <stop
         offset="0"
         stop-color="#3771c8"
         id="stop1" />
      <stop
         stop-color="#3771c8"
         offset=".128"
         id="stop2" />
      <stop
         offset="1"
         stop-color="#60f"
         stop-opacity="0"
         id="stop3" />
    </linearGradient>
    <linearGradient
       id="a">
      <stop
         offset="0"
         stop-color="#fd5"
         id="stop4" />
      <stop
         offset=".1"
         stop-color="#fd5"
         id="stop5" />
      <stop
         offset=".5"
         stop-color="#ff543e"
         id="stop6" />
      <stop
         offset="1"
         stop-color="#c837ab"
         id="stop7" />
    </linearGradient>
    <radialGradient
       id="c"
       cx="158.429"
       cy="578.088"
       r="65"
       xlink:href="#a"
       gradientUnits="userSpaceOnUse"
       gradientTransform="matrix(0 -1.98198 1.8439 0 -1031.402 454.004)"
       fx="158.429"
       fy="578.088" />
    <radialGradient
       id="d"
       cx="147.694"
       cy="473.455"
       r="65"
       xlink:href="#b"
       gradientUnits="userSpaceOnUse"
       gradientTransform="matrix(.17394 .86872 -3.5818 .71718 1648.348 -458.493)"
       fx="147.694"
       fy="473.455" />
  </defs>
  <path
     fill="#fff"
     d="M 66.008186,0 C 48.082956,0 45.833365,0.07837033 38.793079,0.39875075 31.766543,0.72050041 26.970348,1.8328749 22.773676,3.4649996 18.432625,5.1507498 14.750225,7.4057487 11.081575,11.075624 7.410176,14.744125 5.1550842,18.426375 3.463765,22.765874 1.8274483,26.96375 0.71365281,31.761126 0.39739128,38.784624 0.08250224,45.824626 0,48.075499 0,66 0,83.924501 0.07975243,86.167125 0.39876538,93.207125 0.72190384,100.23337 1.8343236,105.02937 3.4651407,109.22587 c 1.6871937,4.34088 3.9422855,8.02313 7.6123083,11.69163 3.667275,3.67125 7.349675,5.93175 11.687976,7.6175 4.199421,1.63213 8.996992,2.7445 16.022154,3.06625 7.040286,0.32038 9.288502,0.39875 27.212356,0.39875 17.926606,0 20.169322,-0.0784 27.209609,-0.39875 7.026536,-0.32175 11.828236,-1.43412 16.027656,-3.06625 4.33967,-1.68575 8.01657,-3.94625 11.68385,-7.6175 3.6714,-3.6685 5.92649,-7.35075 7.61781,-11.69025 1.62256,-4.19788 2.73635,-8.99525 3.06638,-16.018749 0.31625,-7.04 0.39876,-9.284 0.39876,-27.208501 0,-17.924502 -0.0826,-20.174002 -0.39876,-27.214002 -0.33003,-7.026249 -1.44382,-11.822249 -3.06638,-16.01875 -1.69132,-4.340873 -3.94641,-8.023123 -7.61781,-11.691624 -3.6714,-3.6712494 -7.3428,-5.9262499 -11.68798,-7.6106244 C 105.0254,1.8328749 100.22645,0.72050041 93.199918,0.39875075 86.159632,0.07837514 83.91829,0 65.98756,0 Z m -5.920991,11.893749 c 1.757323,-0.0027 3.718152,0 5.920991,0 17.622718,0 19.711427,0.06325 26.670585,0.3795 6.435263,0.294251 9.927909,1.3695 12.254499,2.272875 3.08013,1.196249 5.27609,2.626251 7.58481,4.936252 2.31009,2.309999 3.74015,4.509999 4.9392,7.589999 0.90341,2.32375 1.98008,5.81625 2.27297,12.251251 0.31626,6.957499 0.38501,9.047499 0.38501,26.661248 0,17.613752 -0.0688,19.703751 -0.38501,26.661251 -0.29426,6.435001 -1.36956,9.927505 -2.27297,12.251245 -1.1963,3.08001 -2.62911,5.27313 -4.9392,7.58176 -2.31009,2.30999 -4.50331,3.74 -7.58481,4.93625 -2.32384,0.90749 -5.819236,1.97999 -12.254499,2.27425 -6.957782,0.31624 -9.047867,0.38499 -26.670585,0.38499 -17.624092,0 -19.712802,-0.0687 -26.670585,-0.38499 -6.435263,-0.29701 -9.927905,-1.37225 -12.255874,-2.27563 -3.080126,-1.19625 -5.280216,-2.62625 -7.590309,-4.93625 -2.310095,-2.31 -3.740152,-4.5045 -4.939201,-7.58587 -0.903412,-2.32376 -1.980082,-5.816255 -2.272969,-12.251255 -0.316261,-6.957499 -0.379515,-9.0475 -0.379515,-26.672251 0,-17.62475 0.06325,-19.703749 0.379515,-26.661248 0.294263,-6.435001 1.369557,-9.927501 2.272969,-12.254002 1.196297,-3.079999 2.629106,-5.279999 4.939201,-7.59 2.310093,-2.309999 4.510183,-3.74 7.590309,-4.939 2.326595,-0.907499 5.820611,-1.979999 12.255874,-2.275624 6.088748,-0.275 8.448344,-0.357501 20.749594,-0.371251 z M 101.23987,22.8525 c -4.372677,0 -7.920321,3.543375 -7.920321,7.917251 0,4.372498 3.547644,7.919998 7.920321,7.919998 4.37268,0 7.92032,-3.5475 7.92032,-7.919998 0,-4.3725 -3.54764,-7.92 -7.92032,-7.92 z m -35.231684,9.25375 c -18.718637,0 -33.895129,15.175875 -33.895129,33.89375 0,18.717875 15.176492,33.886875 33.895129,33.886875 18.718638,0 33.88963,-15.169 33.88963,-33.886875 0,-18.717875 -15.172368,-33.89375 -33.891005,-33.89375 z m 0,11.89375 c 12.149995,0 22.000896,9.849126 22.000896,22 0,12.1495 -9.850901,22 -22.000896,22 -12.151369,0 -22.000895,-9.8505 -22.000895,-22 0,-12.150874 9.849526,-22 22.000895,-22 z"
     id="path9"
     style="fill:#000000;stroke-width:1.37503" />
</svg>
