<?xml version="1.0" encoding="UTF-8" standalone="no"?>
<svg
   id="icons"
   viewBox="0 0 512 512"
   version="1.1"
   sodipodi:docname="tiktok.svg"
   inkscape:version="1.4 (e7c3feb100, 2024-10-09)"
   xmlns:inkscape="http://www.inkscape.org/namespaces/inkscape"
   xmlns:sodipodi="http://sodipodi.sourceforge.net/DTD/sodipodi-0.dtd"
   xmlns="http://www.w3.org/2000/svg"
   xmlns:svg="http://www.w3.org/2000/svg">
  <defs
     id="defs1" />
  <sodipodi:namedview
     id="namedview1"
     pagecolor="#ffffff"
     bordercolor="#000000"
     borderopacity="0.25"
     inkscape:showpageshadow="2"
     inkscape:pageopacity="0.0"
     inkscape:pagecheckerboard="0"
     inkscape:deskcolor="#d1d1d1"
     inkscape:zoom="1.1228082"
     inkscape:cx="115.78113"
     inkscape:cy="191.92948"
     inkscape:window-width="1920"
     inkscape:window-height="1080"
     inkscape:window-x="0"
     inkscape:window-y="0"
     inkscape:window-maximized="1"
     inkscape:current-layer="icons" />
  <path
     d="m 422.61628,109.49853 a 116.54885,116.54885 0 0 1 -10.0795,-5.86637 141.72092,141.72092 0 0 1 -25.88671,-21.993573 C 367.34437,59.549024 360.13406,37.139476 357.4782,21.449593 h 0.10666 C 355.3663,8.4262427 356.28359,-3.1888654e-6 356.42225,-3.1888654e-6 H 268.49064 V 340.01502 c 0,4.56511 0,9.07688 -0.19199,13.53533 0,0.55464 -0.0533,1.06661 -0.0853,1.66391 0,0.24532 0,0.50131 -0.0533,0.7573 0,0.064 0,0.12799 0,0.19199 a 74.662939,74.662939 0 0 1 -37.56613,59.26104 73.383003,73.383003 0 0 1 -36.38218,9.59952 c -40.96862,0 -74.1723,-33.40633 -74.1723,-74.66294 0,-41.2566 33.20368,-74.66294 74.1723,-74.66294 a 73.489664,73.489664 0 0 1 22.83619,3.61582 l 0.10667,-89.53153 A 163.34118,163.34118 0 0 0 91.294152,226.60202 172.56738,172.56738 0 0 0 53.642699,273.0317 c -3.711815,6.39968 -17.716449,32.11573 -19.412365,73.85231 -1.066613,23.68949 6.047699,48.23226 9.439529,58.37576 v 0.21332 c 2.133227,5.97303 10.399481,26.35602 23.870809,43.53916 a 178.68974,178.68974 0 0 0 38.088768,35.9342 v -0.21332 l 0.21332,0.21332 c 42.56854,28.92656 89.76618,27.02799 89.76618,27.02799 8.17026,-0.33065 35.53956,0 66.62068,-14.72993 34.47294,-16.32986 54.09863,-40.65931 54.09863,-40.65931 a 169.01556,169.01556 0 0 0 29.4812,-48.98955 c 7.95693,-20.91629 10.6128,-46.00304 10.6128,-56.0292 V 171.18079 c 1.06661,0.63996 15.2739,10.03683 15.2739,10.03683 0,0 20.46831,13.11934 52.40272,21.66292 22.91086,6.07969 53.77865,7.35963 53.77865,7.35963 v -87.29164 c -10.81546,1.17327 -32.77703,-2.23989 -55.26124,-13.45 z"
     id="path1"
     style="stroke-width:1.06661" />
</svg>
