<?xml version="1.0" encoding="UTF-8" standalone="no"?>
<svg
   id="icons"
   viewBox="0 0 512 512"
   version="1.1"
   sodipodi:docname="youtube.svg"
   inkscape:version="1.4 (e7c3feb100, 2024-10-09)"
   xml:space="preserve"
   xmlns:inkscape="http://www.inkscape.org/namespaces/inkscape"
   xmlns:sodipodi="http://sodipodi.sourceforge.net/DTD/sodipodi-0.dtd"
   xmlns="http://www.w3.org/2000/svg"
   xmlns:svg="http://www.w3.org/2000/svg"><defs
     id="defs1" /><sodipodi:namedview
     id="namedview1"
     pagecolor="#ffffff"
     bordercolor="#000000"
     borderopacity="0.25"
     inkscape:showpageshadow="2"
     inkscape:pageopacity="0.0"
     inkscape:pagecheckerboard="0"
     inkscape:deskcolor="#d1d1d1"
     inkscape:zoom="1.12"
     inkscape:cx="115.625"
     inkscape:cy="191.51786"
     inkscape:window-width="1920"
     inkscape:window-height="1080"
     inkscape:window-x="0"
     inkscape:window-y="0"
     inkscape:window-maximized="1"
     inkscape:current-layer="icons" /><path
     id="path1-3"
     style="stroke-width:17.9208"
     class="style-scope yt-icon"
     d="m 256,76.79199 c 0,0 -160.116197,-2.2e-4 -200.029297,10.70508 C 33.928079,93.39763 16.605638,110.7199 10.705078,132.7627 -2.1385557e-4,172.67562 0,255.99903 0,255.99903 c 0,0 -2.1385557e-4,83.32501 10.705078,123.23828 5.90056,22.04263 23.223001,39.36414 45.265625,45.26367 C 95.883803,435.20689 256,435.20801 256,435.20801 c 0,0 160.11586,-0.001 200.02734,-10.70703 22.04263,-5.89953 39.36804,-23.22104 45.26758,-45.26367 C 512.00082,339.32404 512,255.99903 512,255.99903 c 0,0 -0.0422,-83.32341 -10.70508,-123.23633 C 495.39538,110.7199 478.06997,93.39763 456.02734,87.49707 416.11586,76.79177 256,76.79199 256,76.79199 Z M 204.75,179.21387 337.76562,256.00684 204.75,332.79785 Z" /></svg>
